G04 #@! TF.FileFunction,Soldermask,Top*
%FSLAX46Y46*%
G04 Gerber Fmt 4.6, Leading zero omitted, Abs format (unit mm)*
G04 Created by KiCad (PCBNEW 4.0.7) date Monday, July 23, 2018 'PMt' 01:55:31 PM*
%MOMM*%
%LPD*%
G01*
G04 APERTURE LIST*
%ADD10C,0.100000*%
%ADD11C,1.924000*%
%ADD12C,5.480000*%
%ADD13R,1.924000X1.924000*%
%ADD14C,1.000000*%
%ADD15R,2.400000X2.400000*%
%ADD16C,2.400000*%
%ADD17R,10.560000X6.750000*%
G04 APERTURE END LIST*
D10*
D11*
X115570000Y-146050000D03*
X115570000Y-148590000D03*
X115570000Y-135890000D03*
X115570000Y-138430000D03*
X115570000Y-143510000D03*
X115570000Y-140970000D03*
X115570000Y-130810000D03*
X115570000Y-133350000D03*
X115570000Y-128270000D03*
X115570000Y-125730000D03*
X115570000Y-100330000D03*
X115570000Y-102870000D03*
X115570000Y-107950000D03*
X115570000Y-105410000D03*
X115570000Y-115570000D03*
X115570000Y-118110000D03*
X115570000Y-113030000D03*
X115570000Y-110490000D03*
X115570000Y-123190000D03*
X115570000Y-120650000D03*
X115570000Y-95250000D03*
X115570000Y-97790000D03*
X115570000Y-85090000D03*
X115570000Y-87630000D03*
X115570000Y-92710000D03*
X115570000Y-90170000D03*
X115570000Y-80010000D03*
X115570000Y-82550000D03*
X115570000Y-77470000D03*
X115570000Y-74930000D03*
D12*
X102870000Y-77470000D03*
X196850000Y-77470000D03*
X196850000Y-146050000D03*
X102870000Y-146050000D03*
D11*
X106045000Y-86995000D03*
D13*
X106045000Y-81915000D03*
D11*
X108585000Y-81915000D03*
X108585000Y-86995000D03*
X108585000Y-84455000D03*
X106045000Y-84455000D03*
X106045000Y-89535000D03*
X108585000Y-89535000D03*
X108585000Y-92075000D03*
X106045000Y-92075000D03*
X106045000Y-102235000D03*
X108585000Y-102235000D03*
X108585000Y-99695000D03*
X106045000Y-99695000D03*
X106045000Y-94615000D03*
X108585000Y-94615000D03*
X108585000Y-97155000D03*
X106045000Y-97155000D03*
X106045000Y-104775000D03*
X108585000Y-104775000D03*
X106045000Y-107315000D03*
X108585000Y-107315000D03*
X108585000Y-109855000D03*
X106045000Y-109855000D03*
X100965000Y-109855000D03*
X103505000Y-109855000D03*
X103505000Y-107315000D03*
X100965000Y-107315000D03*
X103505000Y-104775000D03*
X100965000Y-104775000D03*
X100965000Y-97155000D03*
X103505000Y-97155000D03*
X103505000Y-94615000D03*
X100965000Y-94615000D03*
X100965000Y-99695000D03*
X103505000Y-99695000D03*
X103505000Y-102235000D03*
X100965000Y-102235000D03*
X100965000Y-92075000D03*
X103505000Y-92075000D03*
X103505000Y-89535000D03*
X100965000Y-89535000D03*
X100965000Y-84455000D03*
X103505000Y-84455000D03*
X103505000Y-86995000D03*
X103505000Y-81915000D03*
D13*
X100965000Y-81915000D03*
D11*
X100965000Y-86995000D03*
X110490000Y-146685000D03*
X110490000Y-141605000D03*
X110490000Y-144145000D03*
X110490000Y-139065000D03*
X106680000Y-141605000D03*
X106680000Y-139065000D03*
X102870000Y-141605000D03*
X102870000Y-139065000D03*
X102870000Y-136525000D03*
X110490000Y-136525000D03*
X106680000Y-136525000D03*
D14*
X110490000Y-113030000D03*
X109220000Y-113030000D03*
X107950000Y-113030000D03*
X102870000Y-113030000D03*
X104140000Y-113030000D03*
X105410000Y-113030000D03*
X106680000Y-113030000D03*
X100965000Y-114935000D03*
X100965000Y-116205000D03*
X100965000Y-117475000D03*
X100965000Y-118745000D03*
X112395000Y-118745000D03*
X112395000Y-117475000D03*
X112395000Y-116205000D03*
X112395000Y-114935000D03*
D15*
X104140000Y-133985000D03*
D16*
X106680000Y-133985000D03*
X109220000Y-133985000D03*
D17*
X106680000Y-116840000D03*
D11*
X118110000Y-146050000D03*
X118110000Y-148590000D03*
X118110000Y-135890000D03*
X118110000Y-138430000D03*
X118110000Y-143510000D03*
X118110000Y-140970000D03*
X118110000Y-130810000D03*
X118110000Y-133350000D03*
X118110000Y-128270000D03*
X118110000Y-125730000D03*
X118110000Y-100330000D03*
X118110000Y-102870000D03*
X118110000Y-107950000D03*
X118110000Y-105410000D03*
X118110000Y-115570000D03*
X118110000Y-118110000D03*
X118110000Y-113030000D03*
X118110000Y-110490000D03*
X118110000Y-123190000D03*
X118110000Y-120650000D03*
X118110000Y-95250000D03*
X118110000Y-97790000D03*
X118110000Y-85090000D03*
X118110000Y-87630000D03*
X118110000Y-92710000D03*
X118110000Y-90170000D03*
X118110000Y-80010000D03*
X118110000Y-82550000D03*
X118110000Y-77470000D03*
X118110000Y-74930000D03*
X115570000Y-146050000D03*
X115570000Y-148590000D03*
X115570000Y-135890000D03*
X115570000Y-138430000D03*
X115570000Y-143510000D03*
X115570000Y-140970000D03*
X115570000Y-130810000D03*
X115570000Y-133350000D03*
X115570000Y-128270000D03*
X115570000Y-125730000D03*
X115570000Y-100330000D03*
X115570000Y-102870000D03*
X115570000Y-107950000D03*
X115570000Y-105410000D03*
X115570000Y-115570000D03*
X115570000Y-118110000D03*
X115570000Y-113030000D03*
X115570000Y-110490000D03*
X115570000Y-123190000D03*
X115570000Y-120650000D03*
X115570000Y-95250000D03*
X115570000Y-97790000D03*
X115570000Y-85090000D03*
X115570000Y-87630000D03*
X115570000Y-92710000D03*
X115570000Y-90170000D03*
X115570000Y-80010000D03*
X115570000Y-82550000D03*
X115570000Y-77470000D03*
X115570000Y-74930000D03*
X191770000Y-148590000D03*
X181610000Y-148590000D03*
X184150000Y-148590000D03*
X189230000Y-148590000D03*
X186690000Y-148590000D03*
X176530000Y-148590000D03*
X179070000Y-148590000D03*
X173990000Y-148590000D03*
X171450000Y-148590000D03*
X146050000Y-148590000D03*
X148590000Y-148590000D03*
X153670000Y-148590000D03*
X151130000Y-148590000D03*
X161290000Y-148590000D03*
X163830000Y-148590000D03*
X158750000Y-148590000D03*
X156210000Y-148590000D03*
X168910000Y-148590000D03*
X166370000Y-148590000D03*
X140970000Y-148590000D03*
X143510000Y-148590000D03*
X130810000Y-148590000D03*
X133350000Y-148590000D03*
X138430000Y-148590000D03*
X135890000Y-148590000D03*
X125730000Y-148590000D03*
X128270000Y-148590000D03*
X123190000Y-148590000D03*
X120650000Y-148590000D03*
X191770000Y-77470000D03*
X181610000Y-77470000D03*
X184150000Y-77470000D03*
X189230000Y-77470000D03*
X186690000Y-77470000D03*
X176530000Y-77470000D03*
X179070000Y-77470000D03*
X173990000Y-77470000D03*
X171450000Y-77470000D03*
X146050000Y-77470000D03*
X148590000Y-77470000D03*
X153670000Y-77470000D03*
X151130000Y-77470000D03*
X161290000Y-77470000D03*
X163830000Y-77470000D03*
X158750000Y-77470000D03*
X156210000Y-77470000D03*
X168910000Y-77470000D03*
X166370000Y-77470000D03*
X140970000Y-77470000D03*
X143510000Y-77470000D03*
X130810000Y-77470000D03*
X133350000Y-77470000D03*
X138430000Y-77470000D03*
X135890000Y-77470000D03*
X125730000Y-77470000D03*
X128270000Y-77470000D03*
X123190000Y-77470000D03*
X120650000Y-77470000D03*
X123190000Y-125730000D03*
X123190000Y-120650000D03*
X123190000Y-123190000D03*
X123190000Y-118110000D03*
X123190000Y-115570000D03*
X133350000Y-90170000D03*
X133350000Y-85090000D03*
X133350000Y-87630000D03*
X133350000Y-82550000D03*
X133350000Y-80010000D03*
X148590000Y-90170000D03*
X148590000Y-85090000D03*
X148590000Y-87630000D03*
X148590000Y-82550000D03*
X148590000Y-80010000D03*
X130810000Y-90170000D03*
X130810000Y-85090000D03*
X130810000Y-87630000D03*
X130810000Y-82550000D03*
X130810000Y-80010000D03*
X146050000Y-90170000D03*
X146050000Y-85090000D03*
X146050000Y-87630000D03*
X146050000Y-82550000D03*
X146050000Y-80010000D03*
X128270000Y-90170000D03*
X128270000Y-85090000D03*
X128270000Y-87630000D03*
X128270000Y-82550000D03*
X128270000Y-80010000D03*
X125730000Y-90170000D03*
X125730000Y-85090000D03*
X125730000Y-87630000D03*
X125730000Y-82550000D03*
X125730000Y-80010000D03*
X130810000Y-125730000D03*
X130810000Y-120650000D03*
X130810000Y-123190000D03*
X130810000Y-118110000D03*
X130810000Y-115570000D03*
X143510000Y-90170000D03*
X143510000Y-85090000D03*
X143510000Y-87630000D03*
X143510000Y-82550000D03*
X143510000Y-80010000D03*
X123190000Y-90170000D03*
X123190000Y-85090000D03*
X123190000Y-87630000D03*
X123190000Y-82550000D03*
X123190000Y-80010000D03*
X163830000Y-90170000D03*
X163830000Y-85090000D03*
X163830000Y-87630000D03*
X163830000Y-82550000D03*
X163830000Y-80010000D03*
X120650000Y-90170000D03*
X120650000Y-85090000D03*
X120650000Y-87630000D03*
X120650000Y-82550000D03*
X120650000Y-80010000D03*
X140970000Y-90170000D03*
X140970000Y-85090000D03*
X140970000Y-87630000D03*
X140970000Y-82550000D03*
X140970000Y-80010000D03*
X189230000Y-90170000D03*
X189230000Y-85090000D03*
X189230000Y-87630000D03*
X189230000Y-82550000D03*
X189230000Y-80010000D03*
X156210000Y-107950000D03*
X156210000Y-102870000D03*
X156210000Y-105410000D03*
X156210000Y-100330000D03*
X156210000Y-97790000D03*
X138430000Y-143510000D03*
X138430000Y-138430000D03*
X138430000Y-140970000D03*
X138430000Y-135890000D03*
X138430000Y-133350000D03*
X161290000Y-125730000D03*
X161290000Y-120650000D03*
X161290000Y-123190000D03*
X161290000Y-118110000D03*
X161290000Y-115570000D03*
X166370000Y-125730000D03*
X166370000Y-120650000D03*
X166370000Y-123190000D03*
X166370000Y-118110000D03*
X166370000Y-115570000D03*
X153670000Y-90170000D03*
X153670000Y-85090000D03*
X153670000Y-87630000D03*
X153670000Y-82550000D03*
X153670000Y-80010000D03*
X156210000Y-90170000D03*
X156210000Y-85090000D03*
X156210000Y-87630000D03*
X156210000Y-82550000D03*
X156210000Y-80010000D03*
X173990000Y-90170000D03*
X173990000Y-85090000D03*
X173990000Y-87630000D03*
X173990000Y-82550000D03*
X173990000Y-80010000D03*
X176530000Y-90170000D03*
X176530000Y-85090000D03*
X176530000Y-87630000D03*
X176530000Y-82550000D03*
X176530000Y-80010000D03*
X199390000Y-107950000D03*
X199390000Y-102870000D03*
X199390000Y-105410000D03*
X199390000Y-100330000D03*
X199390000Y-97790000D03*
X151130000Y-107950000D03*
X151130000Y-102870000D03*
X151130000Y-105410000D03*
X151130000Y-100330000D03*
X151130000Y-97790000D03*
X179070000Y-90170000D03*
X179070000Y-85090000D03*
X179070000Y-87630000D03*
X179070000Y-82550000D03*
X179070000Y-80010000D03*
X158750000Y-90170000D03*
X158750000Y-85090000D03*
X158750000Y-87630000D03*
X158750000Y-82550000D03*
X158750000Y-80010000D03*
X135890000Y-90170000D03*
X135890000Y-85090000D03*
X135890000Y-87630000D03*
X135890000Y-82550000D03*
X135890000Y-80010000D03*
X138430000Y-90170000D03*
X138430000Y-85090000D03*
X138430000Y-87630000D03*
X138430000Y-82550000D03*
X138430000Y-80010000D03*
X161290000Y-90170000D03*
X161290000Y-85090000D03*
X161290000Y-87630000D03*
X161290000Y-82550000D03*
X161290000Y-80010000D03*
X194310000Y-87630000D03*
X194310000Y-90170000D03*
X194310000Y-85090000D03*
X194310000Y-82550000D03*
X196850000Y-87630000D03*
X196850000Y-90170000D03*
X196850000Y-85090000D03*
X196850000Y-82550000D03*
X199390000Y-87630000D03*
X199390000Y-90170000D03*
X199390000Y-85090000D03*
X199390000Y-82550000D03*
X199390000Y-110490000D03*
X196850000Y-110490000D03*
X191770000Y-110490000D03*
X194310000Y-110490000D03*
X181610000Y-110490000D03*
X184150000Y-110490000D03*
X189230000Y-110490000D03*
X186690000Y-110490000D03*
X176530000Y-110490000D03*
X179070000Y-110490000D03*
X173990000Y-110490000D03*
X171450000Y-110490000D03*
X146050000Y-110490000D03*
X148590000Y-110490000D03*
X153670000Y-110490000D03*
X151130000Y-110490000D03*
X161290000Y-110490000D03*
X163830000Y-110490000D03*
X158750000Y-110490000D03*
X156210000Y-110490000D03*
X168910000Y-110490000D03*
X166370000Y-110490000D03*
X140970000Y-110490000D03*
X143510000Y-110490000D03*
X130810000Y-110490000D03*
X133350000Y-110490000D03*
X138430000Y-110490000D03*
X135890000Y-110490000D03*
X125730000Y-110490000D03*
X128270000Y-110490000D03*
X123190000Y-110490000D03*
X120650000Y-110490000D03*
X199390000Y-92710000D03*
X196850000Y-92710000D03*
X191770000Y-92710000D03*
X194310000Y-92710000D03*
X181610000Y-92710000D03*
X184150000Y-92710000D03*
X189230000Y-92710000D03*
X186690000Y-92710000D03*
X176530000Y-92710000D03*
X179070000Y-92710000D03*
X173990000Y-92710000D03*
X171450000Y-92710000D03*
X146050000Y-92710000D03*
X148590000Y-92710000D03*
X153670000Y-92710000D03*
X151130000Y-92710000D03*
X161290000Y-92710000D03*
X163830000Y-92710000D03*
X158750000Y-92710000D03*
X156210000Y-92710000D03*
X168910000Y-92710000D03*
X166370000Y-92710000D03*
X140970000Y-92710000D03*
X143510000Y-92710000D03*
X130810000Y-92710000D03*
X133350000Y-92710000D03*
X138430000Y-92710000D03*
X135890000Y-92710000D03*
X125730000Y-92710000D03*
X128270000Y-92710000D03*
X123190000Y-92710000D03*
X120650000Y-92710000D03*
X168910000Y-90170000D03*
X168910000Y-85090000D03*
X168910000Y-87630000D03*
X168910000Y-82550000D03*
X168910000Y-80010000D03*
X191770000Y-90170000D03*
X191770000Y-85090000D03*
X191770000Y-87630000D03*
X191770000Y-82550000D03*
X191770000Y-80010000D03*
X151130000Y-90170000D03*
X151130000Y-85090000D03*
X151130000Y-87630000D03*
X151130000Y-82550000D03*
X151130000Y-80010000D03*
X171450000Y-90170000D03*
X171450000Y-85090000D03*
X171450000Y-87630000D03*
X171450000Y-82550000D03*
X171450000Y-80010000D03*
X146050000Y-125730000D03*
X146050000Y-120650000D03*
X146050000Y-123190000D03*
X146050000Y-118110000D03*
X146050000Y-115570000D03*
X171450000Y-125730000D03*
X171450000Y-120650000D03*
X171450000Y-123190000D03*
X171450000Y-118110000D03*
X171450000Y-115570000D03*
X128270000Y-125730000D03*
X128270000Y-120650000D03*
X128270000Y-123190000D03*
X128270000Y-118110000D03*
X128270000Y-115570000D03*
X156210000Y-125730000D03*
X156210000Y-120650000D03*
X156210000Y-123190000D03*
X156210000Y-118110000D03*
X156210000Y-115570000D03*
X143510000Y-125730000D03*
X143510000Y-120650000D03*
X143510000Y-123190000D03*
X143510000Y-118110000D03*
X143510000Y-115570000D03*
X158750000Y-125730000D03*
X158750000Y-120650000D03*
X158750000Y-123190000D03*
X158750000Y-118110000D03*
X158750000Y-115570000D03*
X120650000Y-143510000D03*
X120650000Y-138430000D03*
X120650000Y-140970000D03*
X120650000Y-135890000D03*
X120650000Y-133350000D03*
X168910000Y-125730000D03*
X168910000Y-120650000D03*
X168910000Y-123190000D03*
X168910000Y-118110000D03*
X168910000Y-115570000D03*
X153670000Y-125730000D03*
X153670000Y-120650000D03*
X153670000Y-123190000D03*
X153670000Y-118110000D03*
X153670000Y-115570000D03*
X163830000Y-125730000D03*
X163830000Y-120650000D03*
X163830000Y-123190000D03*
X163830000Y-118110000D03*
X163830000Y-115570000D03*
X151130000Y-125730000D03*
X151130000Y-120650000D03*
X151130000Y-123190000D03*
X151130000Y-118110000D03*
X151130000Y-115570000D03*
X143510000Y-107950000D03*
X143510000Y-102870000D03*
X143510000Y-105410000D03*
X143510000Y-100330000D03*
X143510000Y-97790000D03*
X148590000Y-107950000D03*
X148590000Y-102870000D03*
X148590000Y-105410000D03*
X148590000Y-100330000D03*
X148590000Y-97790000D03*
X140970000Y-107950000D03*
X140970000Y-102870000D03*
X140970000Y-105410000D03*
X140970000Y-100330000D03*
X140970000Y-97790000D03*
X148590000Y-125730000D03*
X148590000Y-120650000D03*
X148590000Y-123190000D03*
X148590000Y-118110000D03*
X148590000Y-115570000D03*
X138430000Y-125730000D03*
X138430000Y-120650000D03*
X138430000Y-123190000D03*
X138430000Y-118110000D03*
X138430000Y-115570000D03*
X133350000Y-125730000D03*
X133350000Y-120650000D03*
X133350000Y-123190000D03*
X133350000Y-118110000D03*
X133350000Y-115570000D03*
X135890000Y-125730000D03*
X135890000Y-120650000D03*
X135890000Y-123190000D03*
X135890000Y-118110000D03*
X135890000Y-115570000D03*
X123190000Y-143510000D03*
X123190000Y-138430000D03*
X123190000Y-140970000D03*
X123190000Y-135890000D03*
X123190000Y-133350000D03*
X125730000Y-143510000D03*
X125730000Y-138430000D03*
X125730000Y-140970000D03*
X125730000Y-135890000D03*
X125730000Y-133350000D03*
X125730000Y-125730000D03*
X125730000Y-120650000D03*
X125730000Y-123190000D03*
X125730000Y-118110000D03*
X125730000Y-115570000D03*
X130810000Y-143510000D03*
X130810000Y-138430000D03*
X130810000Y-140970000D03*
X130810000Y-135890000D03*
X130810000Y-133350000D03*
X133350000Y-143510000D03*
X133350000Y-138430000D03*
X133350000Y-140970000D03*
X133350000Y-135890000D03*
X133350000Y-133350000D03*
X146050000Y-143510000D03*
X146050000Y-138430000D03*
X146050000Y-140970000D03*
X146050000Y-135890000D03*
X146050000Y-133350000D03*
X140970000Y-125730000D03*
X140970000Y-120650000D03*
X140970000Y-123190000D03*
X140970000Y-118110000D03*
X140970000Y-115570000D03*
X120650000Y-107950000D03*
X120650000Y-102870000D03*
X120650000Y-105410000D03*
X120650000Y-100330000D03*
X120650000Y-97790000D03*
X135890000Y-107950000D03*
X135890000Y-102870000D03*
X135890000Y-105410000D03*
X135890000Y-100330000D03*
X135890000Y-97790000D03*
X179070000Y-107950000D03*
X179070000Y-102870000D03*
X179070000Y-105410000D03*
X179070000Y-100330000D03*
X179070000Y-97790000D03*
X199390000Y-95250000D03*
X196850000Y-95250000D03*
X191770000Y-95250000D03*
X194310000Y-95250000D03*
X181610000Y-95250000D03*
X184150000Y-95250000D03*
X189230000Y-95250000D03*
X186690000Y-95250000D03*
X176530000Y-95250000D03*
X179070000Y-95250000D03*
X173990000Y-95250000D03*
X171450000Y-95250000D03*
X146050000Y-95250000D03*
X148590000Y-95250000D03*
X153670000Y-95250000D03*
X151130000Y-95250000D03*
X161290000Y-95250000D03*
X163830000Y-95250000D03*
X158750000Y-95250000D03*
X156210000Y-95250000D03*
X168910000Y-95250000D03*
X166370000Y-95250000D03*
X140970000Y-95250000D03*
X143510000Y-95250000D03*
X130810000Y-95250000D03*
X133350000Y-95250000D03*
X138430000Y-95250000D03*
X135890000Y-95250000D03*
X125730000Y-95250000D03*
X128270000Y-95250000D03*
X123190000Y-95250000D03*
X120650000Y-95250000D03*
X199390000Y-128270000D03*
X196850000Y-128270000D03*
X191770000Y-128270000D03*
X194310000Y-128270000D03*
X181610000Y-128270000D03*
X184150000Y-128270000D03*
X189230000Y-128270000D03*
X186690000Y-128270000D03*
X176530000Y-128270000D03*
X179070000Y-128270000D03*
X173990000Y-128270000D03*
X171450000Y-128270000D03*
X146050000Y-128270000D03*
X148590000Y-128270000D03*
X153670000Y-128270000D03*
X151130000Y-128270000D03*
X161290000Y-128270000D03*
X163830000Y-128270000D03*
X158750000Y-128270000D03*
X156210000Y-128270000D03*
X168910000Y-128270000D03*
X166370000Y-128270000D03*
X140970000Y-128270000D03*
X143510000Y-128270000D03*
X130810000Y-128270000D03*
X133350000Y-128270000D03*
X138430000Y-128270000D03*
X135890000Y-128270000D03*
X125730000Y-128270000D03*
X128270000Y-128270000D03*
X123190000Y-128270000D03*
X120650000Y-128270000D03*
X135890000Y-143510000D03*
X135890000Y-138430000D03*
X135890000Y-140970000D03*
X135890000Y-135890000D03*
X135890000Y-133350000D03*
X128270000Y-107950000D03*
X128270000Y-102870000D03*
X128270000Y-105410000D03*
X128270000Y-100330000D03*
X128270000Y-97790000D03*
X133350000Y-107950000D03*
X133350000Y-102870000D03*
X133350000Y-105410000D03*
X133350000Y-100330000D03*
X133350000Y-97790000D03*
X125730000Y-107950000D03*
X125730000Y-102870000D03*
X125730000Y-105410000D03*
X125730000Y-100330000D03*
X125730000Y-97790000D03*
X146050000Y-107950000D03*
X146050000Y-102870000D03*
X146050000Y-105410000D03*
X146050000Y-100330000D03*
X146050000Y-97790000D03*
X138430000Y-107950000D03*
X138430000Y-102870000D03*
X138430000Y-105410000D03*
X138430000Y-100330000D03*
X138430000Y-97790000D03*
X130810000Y-107950000D03*
X130810000Y-102870000D03*
X130810000Y-105410000D03*
X130810000Y-100330000D03*
X130810000Y-97790000D03*
X176530000Y-107950000D03*
X176530000Y-102870000D03*
X176530000Y-105410000D03*
X176530000Y-100330000D03*
X176530000Y-97790000D03*
X166370000Y-107950000D03*
X166370000Y-102870000D03*
X166370000Y-105410000D03*
X166370000Y-100330000D03*
X166370000Y-97790000D03*
X194310000Y-107950000D03*
X194310000Y-102870000D03*
X194310000Y-105410000D03*
X194310000Y-100330000D03*
X194310000Y-97790000D03*
X173990000Y-107950000D03*
X173990000Y-102870000D03*
X173990000Y-105410000D03*
X173990000Y-100330000D03*
X173990000Y-97790000D03*
X163830000Y-107950000D03*
X163830000Y-102870000D03*
X163830000Y-105410000D03*
X163830000Y-100330000D03*
X163830000Y-97790000D03*
X191770000Y-107950000D03*
X191770000Y-102870000D03*
X191770000Y-105410000D03*
X191770000Y-100330000D03*
X191770000Y-97790000D03*
X171450000Y-107950000D03*
X171450000Y-102870000D03*
X171450000Y-105410000D03*
X171450000Y-100330000D03*
X171450000Y-97790000D03*
X186690000Y-90170000D03*
X186690000Y-85090000D03*
X186690000Y-87630000D03*
X186690000Y-82550000D03*
X186690000Y-80010000D03*
X196850000Y-107950000D03*
X196850000Y-102870000D03*
X196850000Y-105410000D03*
X196850000Y-100330000D03*
X196850000Y-97790000D03*
X184150000Y-107950000D03*
X184150000Y-102870000D03*
X184150000Y-105410000D03*
X184150000Y-100330000D03*
X184150000Y-97790000D03*
X166370000Y-90170000D03*
X166370000Y-85090000D03*
X166370000Y-87630000D03*
X166370000Y-82550000D03*
X166370000Y-80010000D03*
X181610000Y-90170000D03*
X181610000Y-85090000D03*
X181610000Y-87630000D03*
X181610000Y-82550000D03*
X181610000Y-80010000D03*
X181610000Y-107950000D03*
X181610000Y-102870000D03*
X181610000Y-105410000D03*
X181610000Y-100330000D03*
X181610000Y-97790000D03*
X186690000Y-107950000D03*
X186690000Y-102870000D03*
X186690000Y-105410000D03*
X186690000Y-100330000D03*
X186690000Y-97790000D03*
X161290000Y-107950000D03*
X161290000Y-102870000D03*
X161290000Y-105410000D03*
X161290000Y-100330000D03*
X161290000Y-97790000D03*
X199390000Y-125730000D03*
X199390000Y-120650000D03*
X199390000Y-123190000D03*
X199390000Y-118110000D03*
X199390000Y-115570000D03*
X123190000Y-107950000D03*
X123190000Y-102870000D03*
X123190000Y-105410000D03*
X123190000Y-100330000D03*
X123190000Y-97790000D03*
X151130000Y-143510000D03*
X151130000Y-138430000D03*
X151130000Y-140970000D03*
X151130000Y-135890000D03*
X151130000Y-133350000D03*
X148590000Y-143510000D03*
X148590000Y-138430000D03*
X148590000Y-140970000D03*
X148590000Y-135890000D03*
X148590000Y-133350000D03*
X128270000Y-143510000D03*
X128270000Y-138430000D03*
X128270000Y-140970000D03*
X128270000Y-135890000D03*
X128270000Y-133350000D03*
X153670000Y-143510000D03*
X153670000Y-138430000D03*
X153670000Y-140970000D03*
X153670000Y-135890000D03*
X153670000Y-133350000D03*
X158750000Y-143510000D03*
X158750000Y-138430000D03*
X158750000Y-140970000D03*
X158750000Y-135890000D03*
X158750000Y-133350000D03*
X196850000Y-125730000D03*
X196850000Y-120650000D03*
X196850000Y-123190000D03*
X196850000Y-118110000D03*
X196850000Y-115570000D03*
X158750000Y-107950000D03*
X158750000Y-102870000D03*
X158750000Y-105410000D03*
X158750000Y-100330000D03*
X158750000Y-97790000D03*
X189230000Y-107950000D03*
X189230000Y-102870000D03*
X189230000Y-105410000D03*
X189230000Y-100330000D03*
X189230000Y-97790000D03*
X199390000Y-130810000D03*
X196850000Y-130810000D03*
X191770000Y-130810000D03*
X194310000Y-130810000D03*
X181610000Y-130810000D03*
X184150000Y-130810000D03*
X189230000Y-130810000D03*
X186690000Y-130810000D03*
X176530000Y-130810000D03*
X179070000Y-130810000D03*
X173990000Y-130810000D03*
X171450000Y-130810000D03*
X146050000Y-130810000D03*
X148590000Y-130810000D03*
X153670000Y-130810000D03*
X151130000Y-130810000D03*
X161290000Y-130810000D03*
X163830000Y-130810000D03*
X158750000Y-130810000D03*
X156210000Y-130810000D03*
X168910000Y-130810000D03*
X166370000Y-130810000D03*
X140970000Y-130810000D03*
X143510000Y-130810000D03*
X130810000Y-130810000D03*
X133350000Y-130810000D03*
X138430000Y-130810000D03*
X135890000Y-130810000D03*
X125730000Y-130810000D03*
X128270000Y-130810000D03*
X123190000Y-130810000D03*
X120650000Y-130810000D03*
X199390000Y-113030000D03*
X196850000Y-113030000D03*
X191770000Y-113030000D03*
X194310000Y-113030000D03*
X181610000Y-113030000D03*
X184150000Y-113030000D03*
X189230000Y-113030000D03*
X186690000Y-113030000D03*
X176530000Y-113030000D03*
X179070000Y-113030000D03*
X173990000Y-113030000D03*
X171450000Y-113030000D03*
X146050000Y-113030000D03*
X148590000Y-113030000D03*
X153670000Y-113030000D03*
X151130000Y-113030000D03*
X161290000Y-113030000D03*
X163830000Y-113030000D03*
X158750000Y-113030000D03*
X156210000Y-113030000D03*
X168910000Y-113030000D03*
X166370000Y-113030000D03*
X140970000Y-113030000D03*
X143510000Y-113030000D03*
X130810000Y-113030000D03*
X133350000Y-113030000D03*
X138430000Y-113030000D03*
X135890000Y-113030000D03*
X125730000Y-113030000D03*
X128270000Y-113030000D03*
X123190000Y-113030000D03*
X120650000Y-113030000D03*
X189230000Y-143510000D03*
X189230000Y-138430000D03*
X189230000Y-140970000D03*
X189230000Y-135890000D03*
X189230000Y-133350000D03*
X191770000Y-143510000D03*
X191770000Y-138430000D03*
X191770000Y-140970000D03*
X191770000Y-135890000D03*
X191770000Y-133350000D03*
X181610000Y-143510000D03*
X181610000Y-138430000D03*
X181610000Y-140970000D03*
X181610000Y-135890000D03*
X181610000Y-133350000D03*
X179070000Y-125730000D03*
X179070000Y-120650000D03*
X179070000Y-123190000D03*
X179070000Y-118110000D03*
X179070000Y-115570000D03*
X189230000Y-125730000D03*
X189230000Y-120650000D03*
X189230000Y-123190000D03*
X189230000Y-118110000D03*
X189230000Y-115570000D03*
X143510000Y-143510000D03*
X143510000Y-138430000D03*
X143510000Y-140970000D03*
X143510000Y-135890000D03*
X143510000Y-133350000D03*
X153670000Y-107950000D03*
X153670000Y-102870000D03*
X153670000Y-105410000D03*
X153670000Y-100330000D03*
X153670000Y-97790000D03*
X191770000Y-125730000D03*
X191770000Y-120650000D03*
X191770000Y-123190000D03*
X191770000Y-118110000D03*
X191770000Y-115570000D03*
X181610000Y-125730000D03*
X181610000Y-120650000D03*
X181610000Y-123190000D03*
X181610000Y-118110000D03*
X181610000Y-115570000D03*
X161290000Y-143510000D03*
X161290000Y-138430000D03*
X161290000Y-140970000D03*
X161290000Y-135890000D03*
X161290000Y-133350000D03*
X173990000Y-143510000D03*
X173990000Y-138430000D03*
X173990000Y-140970000D03*
X173990000Y-135890000D03*
X173990000Y-133350000D03*
X140970000Y-143510000D03*
X140970000Y-138430000D03*
X140970000Y-140970000D03*
X140970000Y-135890000D03*
X140970000Y-133350000D03*
X166370000Y-143510000D03*
X166370000Y-138430000D03*
X166370000Y-140970000D03*
X166370000Y-135890000D03*
X166370000Y-133350000D03*
X156210000Y-143510000D03*
X156210000Y-138430000D03*
X156210000Y-140970000D03*
X156210000Y-135890000D03*
X156210000Y-133350000D03*
X163830000Y-143510000D03*
X163830000Y-138430000D03*
X163830000Y-140970000D03*
X163830000Y-135890000D03*
X163830000Y-133350000D03*
X184150000Y-125730000D03*
X184150000Y-120650000D03*
X184150000Y-123190000D03*
X184150000Y-118110000D03*
X184150000Y-115570000D03*
X194310000Y-125730000D03*
X194310000Y-120650000D03*
X194310000Y-123190000D03*
X194310000Y-118110000D03*
X194310000Y-115570000D03*
X168910000Y-107950000D03*
X168910000Y-102870000D03*
X168910000Y-105410000D03*
X168910000Y-100330000D03*
X168910000Y-97790000D03*
X184150000Y-90170000D03*
X184150000Y-85090000D03*
X184150000Y-87630000D03*
X184150000Y-82550000D03*
X184150000Y-80010000D03*
X168910000Y-143510000D03*
X168910000Y-138430000D03*
X168910000Y-140970000D03*
X168910000Y-135890000D03*
X168910000Y-133350000D03*
X171450000Y-143510000D03*
X171450000Y-138430000D03*
X171450000Y-140970000D03*
X171450000Y-135890000D03*
X171450000Y-133350000D03*
X176530000Y-143510000D03*
X176530000Y-138430000D03*
X176530000Y-140970000D03*
X176530000Y-135890000D03*
X176530000Y-133350000D03*
X184150000Y-143510000D03*
X184150000Y-138430000D03*
X184150000Y-140970000D03*
X184150000Y-135890000D03*
X184150000Y-133350000D03*
X186690000Y-143510000D03*
X186690000Y-138430000D03*
X186690000Y-140970000D03*
X186690000Y-135890000D03*
X186690000Y-133350000D03*
X179070000Y-143510000D03*
X179070000Y-138430000D03*
X179070000Y-140970000D03*
X179070000Y-135890000D03*
X179070000Y-133350000D03*
X120650000Y-125730000D03*
X120650000Y-120650000D03*
X120650000Y-123190000D03*
X120650000Y-118110000D03*
X120650000Y-115570000D03*
X176530000Y-125730000D03*
X176530000Y-120650000D03*
X176530000Y-123190000D03*
X176530000Y-118110000D03*
X176530000Y-115570000D03*
X186690000Y-125730000D03*
X186690000Y-120650000D03*
X186690000Y-123190000D03*
X186690000Y-118110000D03*
X186690000Y-115570000D03*
X173990000Y-125730000D03*
X173990000Y-120650000D03*
X173990000Y-123190000D03*
X173990000Y-118110000D03*
X173990000Y-115570000D03*
X191770000Y-146050000D03*
X181610000Y-146050000D03*
X184150000Y-146050000D03*
X189230000Y-146050000D03*
X186690000Y-146050000D03*
X176530000Y-146050000D03*
X179070000Y-146050000D03*
X173990000Y-146050000D03*
X171450000Y-146050000D03*
X146050000Y-146050000D03*
X148590000Y-146050000D03*
X153670000Y-146050000D03*
X151130000Y-146050000D03*
X161290000Y-146050000D03*
X163830000Y-146050000D03*
X158750000Y-146050000D03*
X156210000Y-146050000D03*
X168910000Y-146050000D03*
X166370000Y-146050000D03*
X140970000Y-146050000D03*
X143510000Y-146050000D03*
X130810000Y-146050000D03*
X133350000Y-146050000D03*
X138430000Y-146050000D03*
X135890000Y-146050000D03*
X125730000Y-146050000D03*
X128270000Y-146050000D03*
X123190000Y-146050000D03*
X120650000Y-146050000D03*
X191770000Y-74930000D03*
X181610000Y-74930000D03*
X184150000Y-74930000D03*
X189230000Y-74930000D03*
X186690000Y-74930000D03*
X176530000Y-74930000D03*
X179070000Y-74930000D03*
X173990000Y-74930000D03*
X171450000Y-74930000D03*
X146050000Y-74930000D03*
X148590000Y-74930000D03*
X153670000Y-74930000D03*
X151130000Y-74930000D03*
X161290000Y-74930000D03*
X163830000Y-74930000D03*
X158750000Y-74930000D03*
X156210000Y-74930000D03*
X168910000Y-74930000D03*
X166370000Y-74930000D03*
X140970000Y-74930000D03*
X143510000Y-74930000D03*
X130810000Y-74930000D03*
X133350000Y-74930000D03*
X138430000Y-74930000D03*
X135890000Y-74930000D03*
X125730000Y-74930000D03*
X128270000Y-74930000D03*
X123190000Y-74930000D03*
X120650000Y-74930000D03*
X199390000Y-138430000D03*
X199390000Y-140970000D03*
X199390000Y-135890000D03*
X199390000Y-133350000D03*
X194310000Y-138430000D03*
X194310000Y-140970000D03*
X194310000Y-135890000D03*
X194310000Y-133350000D03*
X196850000Y-138430000D03*
X196850000Y-140970000D03*
X196850000Y-135890000D03*
X196850000Y-133350000D03*
M02*
