M48
;DRILL file {KiCad 4.0.7} date Monday, July 23, 2018 'PMt' 01:54:47 PM
;FORMAT={-:-/ absolute / inch / decimal}
FMAT,2
INCH,TZ
T1C0.013
T2C0.030
T3C0.039
T4C0.040
T5C0.047
T6C0.100
%
G90
G05
M72
T1
X3.975Y-4.525
X3.975Y-4.575
X3.975Y-4.625
X3.975Y-4.675
X4.05Y-4.45
X4.1Y-4.45
X4.15Y-4.45
X4.2Y-4.45
X4.25Y-4.45
X4.3Y-4.45
X4.35Y-4.45
X4.425Y-4.525
X4.425Y-4.575
X4.425Y-4.625
X4.425Y-4.675
T2
X4.05Y-5.375
X4.05Y-5.475
X4.05Y-5.575
X4.2Y-5.375
X4.2Y-5.475
X4.2Y-5.575
X4.35Y-5.375
X4.35Y-5.475
X4.35Y-5.575
X4.35Y-5.675
X4.35Y-5.775
X4.55Y-2.95
X4.55Y-2.95
X4.55Y-3.05
X4.55Y-3.05
X4.55Y-3.15
X4.55Y-3.15
X4.55Y-3.25
X4.55Y-3.25
X4.55Y-3.35
X4.55Y-3.35
X4.55Y-3.45
X4.55Y-3.45
X4.55Y-3.55
X4.55Y-3.55
X4.55Y-3.65
X4.55Y-3.65
X4.55Y-3.75
X4.55Y-3.75
X4.55Y-3.85
X4.55Y-3.85
X4.55Y-3.95
X4.55Y-3.95
X4.55Y-4.05
X4.55Y-4.05
X4.55Y-4.15
X4.55Y-4.15
X4.55Y-4.25
X4.55Y-4.25
X4.55Y-4.35
X4.55Y-4.35
X4.55Y-4.45
X4.55Y-4.45
X4.55Y-4.55
X4.55Y-4.55
X4.55Y-4.65
X4.55Y-4.65
X4.55Y-4.75
X4.55Y-4.75
X4.55Y-4.85
X4.55Y-4.85
X4.55Y-4.95
X4.55Y-4.95
X4.55Y-5.05
X4.55Y-5.05
X4.55Y-5.15
X4.55Y-5.15
X4.55Y-5.25
X4.55Y-5.25
X4.55Y-5.35
X4.55Y-5.35
X4.55Y-5.45
X4.55Y-5.45
X4.55Y-5.55
X4.55Y-5.55
X4.55Y-5.65
X4.55Y-5.65
X4.55Y-5.75
X4.55Y-5.75
X4.55Y-5.85
X4.55Y-5.85
X4.65Y-2.95
X4.65Y-3.05
X4.65Y-3.15
X4.65Y-3.25
X4.65Y-3.35
X4.65Y-3.45
X4.65Y-3.55
X4.65Y-3.65
X4.65Y-3.75
X4.65Y-3.85
X4.65Y-3.95
X4.65Y-4.05
X4.65Y-4.15
X4.65Y-4.25
X4.65Y-4.35
X4.65Y-4.45
X4.65Y-4.55
X4.65Y-4.65
X4.65Y-4.75
X4.65Y-4.85
X4.65Y-4.95
X4.65Y-5.05
X4.65Y-5.15
X4.65Y-5.25
X4.65Y-5.35
X4.65Y-5.45
X4.65Y-5.55
X4.65Y-5.65
X4.65Y-5.75
X4.65Y-5.85
X4.75Y-2.95
X4.75Y-3.05
X4.75Y-3.15
X4.75Y-3.25
X4.75Y-3.35
X4.75Y-3.45
X4.75Y-3.55
X4.75Y-3.65
X4.75Y-3.75
X4.75Y-3.85
X4.75Y-3.95
X4.75Y-4.05
X4.75Y-4.15
X4.75Y-4.25
X4.75Y-4.35
X4.75Y-4.45
X4.75Y-4.55
X4.75Y-4.65
X4.75Y-4.75
X4.75Y-4.85
X4.75Y-4.95
X4.75Y-5.05
X4.75Y-5.15
X4.75Y-5.25
X4.75Y-5.35
X4.75Y-5.45
X4.75Y-5.55
X4.75Y-5.65
X4.75Y-5.75
X4.75Y-5.85
X4.85Y-2.95
X4.85Y-3.05
X4.85Y-3.15
X4.85Y-3.25
X4.85Y-3.35
X4.85Y-3.45
X4.85Y-3.55
X4.85Y-3.65
X4.85Y-3.75
X4.85Y-3.85
X4.85Y-3.95
X4.85Y-4.05
X4.85Y-4.15
X4.85Y-4.25
X4.85Y-4.35
X4.85Y-4.45
X4.85Y-4.55
X4.85Y-4.65
X4.85Y-4.75
X4.85Y-4.85
X4.85Y-4.95
X4.85Y-5.05
X4.85Y-5.15
X4.85Y-5.25
X4.85Y-5.35
X4.85Y-5.45
X4.85Y-5.55
X4.85Y-5.65
X4.85Y-5.75
X4.85Y-5.85
X4.95Y-2.95
X4.95Y-3.05
X4.95Y-3.15
X4.95Y-3.25
X4.95Y-3.35
X4.95Y-3.45
X4.95Y-3.55
X4.95Y-3.65
X4.95Y-3.75
X4.95Y-3.85
X4.95Y-3.95
X4.95Y-4.05
X4.95Y-4.15
X4.95Y-4.25
X4.95Y-4.35
X4.95Y-4.45
X4.95Y-4.55
X4.95Y-4.65
X4.95Y-4.75
X4.95Y-4.85
X4.95Y-4.95
X4.95Y-5.05
X4.95Y-5.15
X4.95Y-5.25
X4.95Y-5.35
X4.95Y-5.45
X4.95Y-5.55
X4.95Y-5.65
X4.95Y-5.75
X4.95Y-5.85
X5.05Y-2.95
X5.05Y-3.05
X5.05Y-3.15
X5.05Y-3.25
X5.05Y-3.35
X5.05Y-3.45
X5.05Y-3.55
X5.05Y-3.65
X5.05Y-3.75
X5.05Y-3.85
X5.05Y-3.95
X5.05Y-4.05
X5.05Y-4.15
X5.05Y-4.25
X5.05Y-4.35
X5.05Y-4.45
X5.05Y-4.55
X5.05Y-4.65
X5.05Y-4.75
X5.05Y-4.85
X5.05Y-4.95
X5.05Y-5.05
X5.05Y-5.15
X5.05Y-5.25
X5.05Y-5.35
X5.05Y-5.45
X5.05Y-5.55
X5.05Y-5.65
X5.05Y-5.75
X5.05Y-5.85
X5.15Y-2.95
X5.15Y-3.05
X5.15Y-3.15
X5.15Y-3.25
X5.15Y-3.35
X5.15Y-3.45
X5.15Y-3.55
X5.15Y-3.65
X5.15Y-3.75
X5.15Y-3.85
X5.15Y-3.95
X5.15Y-4.05
X5.15Y-4.15
X5.15Y-4.25
X5.15Y-4.35
X5.15Y-4.45
X5.15Y-4.55
X5.15Y-4.65
X5.15Y-4.75
X5.15Y-4.85
X5.15Y-4.95
X5.15Y-5.05
X5.15Y-5.15
X5.15Y-5.25
X5.15Y-5.35
X5.15Y-5.45
X5.15Y-5.55
X5.15Y-5.65
X5.15Y-5.75
X5.15Y-5.85
X5.25Y-2.95
X5.25Y-3.05
X5.25Y-3.15
X5.25Y-3.25
X5.25Y-3.35
X5.25Y-3.45
X5.25Y-3.55
X5.25Y-3.65
X5.25Y-3.75
X5.25Y-3.85
X5.25Y-3.95
X5.25Y-4.05
X5.25Y-4.15
X5.25Y-4.25
X5.25Y-4.35
X5.25Y-4.45
X5.25Y-4.55
X5.25Y-4.65
X5.25Y-4.75
X5.25Y-4.85
X5.25Y-4.95
X5.25Y-5.05
X5.25Y-5.15
X5.25Y-5.25
X5.25Y-5.35
X5.25Y-5.45
X5.25Y-5.55
X5.25Y-5.65
X5.25Y-5.75
X5.25Y-5.85
X5.35Y-2.95
X5.35Y-3.05
X5.35Y-3.15
X5.35Y-3.25
X5.35Y-3.35
X5.35Y-3.45
X5.35Y-3.55
X5.35Y-3.65
X5.35Y-3.75
X5.35Y-3.85
X5.35Y-3.95
X5.35Y-4.05
X5.35Y-4.15
X5.35Y-4.25
X5.35Y-4.35
X5.35Y-4.45
X5.35Y-4.55
X5.35Y-4.65
X5.35Y-4.75
X5.35Y-4.85
X5.35Y-4.95
X5.35Y-5.05
X5.35Y-5.15
X5.35Y-5.25
X5.35Y-5.35
X5.35Y-5.45
X5.35Y-5.55
X5.35Y-5.65
X5.35Y-5.75
X5.35Y-5.85
X5.45Y-2.95
X5.45Y-3.05
X5.45Y-3.15
X5.45Y-3.25
X5.45Y-3.35
X5.45Y-3.45
X5.45Y-3.55
X5.45Y-3.65
X5.45Y-3.75
X5.45Y-3.85
X5.45Y-3.95
X5.45Y-4.05
X5.45Y-4.15
X5.45Y-4.25
X5.45Y-4.35
X5.45Y-4.45
X5.45Y-4.55
X5.45Y-4.65
X5.45Y-4.75
X5.45Y-4.85
X5.45Y-4.95
X5.45Y-5.05
X5.45Y-5.15
X5.45Y-5.25
X5.45Y-5.35
X5.45Y-5.45
X5.45Y-5.55
X5.45Y-5.65
X5.45Y-5.75
X5.45Y-5.85
X5.55Y-2.95
X5.55Y-3.05
X5.55Y-3.15
X5.55Y-3.25
X5.55Y-3.35
X5.55Y-3.45
X5.55Y-3.55
X5.55Y-3.65
X5.55Y-3.75
X5.55Y-3.85
X5.55Y-3.95
X5.55Y-4.05
X5.55Y-4.15
X5.55Y-4.25
X5.55Y-4.35
X5.55Y-4.45
X5.55Y-4.55
X5.55Y-4.65
X5.55Y-4.75
X5.55Y-4.85
X5.55Y-4.95
X5.55Y-5.05
X5.55Y-5.15
X5.55Y-5.25
X5.55Y-5.35
X5.55Y-5.45
X5.55Y-5.55
X5.55Y-5.65
X5.55Y-5.75
X5.55Y-5.85
X5.65Y-2.95
X5.65Y-3.05
X5.65Y-3.15
X5.65Y-3.25
X5.65Y-3.35
X5.65Y-3.45
X5.65Y-3.55
X5.65Y-3.65
X5.65Y-3.75
X5.65Y-3.85
X5.65Y-3.95
X5.65Y-4.05
X5.65Y-4.15
X5.65Y-4.25
X5.65Y-4.35
X5.65Y-4.45
X5.65Y-4.55
X5.65Y-4.65
X5.65Y-4.75
X5.65Y-4.85
X5.65Y-4.95
X5.65Y-5.05
X5.65Y-5.15
X5.65Y-5.25
X5.65Y-5.35
X5.65Y-5.45
X5.65Y-5.55
X5.65Y-5.65
X5.65Y-5.75
X5.65Y-5.85
X5.75Y-2.95
X5.75Y-3.05
X5.75Y-3.15
X5.75Y-3.25
X5.75Y-3.35
X5.75Y-3.45
X5.75Y-3.55
X5.75Y-3.65
X5.75Y-3.75
X5.75Y-3.85
X5.75Y-3.95
X5.75Y-4.05
X5.75Y-4.15
X5.75Y-4.25
X5.75Y-4.35
X5.75Y-4.45
X5.75Y-4.55
X5.75Y-4.65
X5.75Y-4.75
X5.75Y-4.85
X5.75Y-4.95
X5.75Y-5.05
X5.75Y-5.15
X5.75Y-5.25
X5.75Y-5.35
X5.75Y-5.45
X5.75Y-5.55
X5.75Y-5.65
X5.75Y-5.75
X5.75Y-5.85
X5.85Y-2.95
X5.85Y-3.05
X5.85Y-3.15
X5.85Y-3.25
X5.85Y-3.35
X5.85Y-3.45
X5.85Y-3.55
X5.85Y-3.65
X5.85Y-3.75
X5.85Y-3.85
X5.85Y-3.95
X5.85Y-4.05
X5.85Y-4.15
X5.85Y-4.25
X5.85Y-4.35
X5.85Y-4.45
X5.85Y-4.55
X5.85Y-4.65
X5.85Y-4.75
X5.85Y-4.85
X5.85Y-4.95
X5.85Y-5.05
X5.85Y-5.15
X5.85Y-5.25
X5.85Y-5.35
X5.85Y-5.45
X5.85Y-5.55
X5.85Y-5.65
X5.85Y-5.75
X5.85Y-5.85
X5.95Y-2.95
X5.95Y-3.05
X5.95Y-3.15
X5.95Y-3.25
X5.95Y-3.35
X5.95Y-3.45
X5.95Y-3.55
X5.95Y-3.65
X5.95Y-3.75
X5.95Y-3.85
X5.95Y-3.95
X5.95Y-4.05
X5.95Y-4.15
X5.95Y-4.25
X5.95Y-4.35
X5.95Y-4.45
X5.95Y-4.55
X5.95Y-4.65
X5.95Y-4.75
X5.95Y-4.85
X5.95Y-4.95
X5.95Y-5.05
X5.95Y-5.15
X5.95Y-5.25
X5.95Y-5.35
X5.95Y-5.45
X5.95Y-5.55
X5.95Y-5.65
X5.95Y-5.75
X5.95Y-5.85
X6.05Y-2.95
X6.05Y-3.05
X6.05Y-3.15
X6.05Y-3.25
X6.05Y-3.35
X6.05Y-3.45
X6.05Y-3.55
X6.05Y-3.65
X6.05Y-3.75
X6.05Y-3.85
X6.05Y-3.95
X6.05Y-4.05
X6.05Y-4.15
X6.05Y-4.25
X6.05Y-4.35
X6.05Y-4.45
X6.05Y-4.55
X6.05Y-4.65
X6.05Y-4.75
X6.05Y-4.85
X6.05Y-4.95
X6.05Y-5.05
X6.05Y-5.15
X6.05Y-5.25
X6.05Y-5.35
X6.05Y-5.45
X6.05Y-5.55
X6.05Y-5.65
X6.05Y-5.75
X6.05Y-5.85
X6.15Y-2.95
X6.15Y-3.05
X6.15Y-3.15
X6.15Y-3.25
X6.15Y-3.35
X6.15Y-3.45
X6.15Y-3.55
X6.15Y-3.65
X6.15Y-3.75
X6.15Y-3.85
X6.15Y-3.95
X6.15Y-4.05
X6.15Y-4.15
X6.15Y-4.25
X6.15Y-4.35
X6.15Y-4.45
X6.15Y-4.55
X6.15Y-4.65
X6.15Y-4.75
X6.15Y-4.85
X6.15Y-4.95
X6.15Y-5.05
X6.15Y-5.15
X6.15Y-5.25
X6.15Y-5.35
X6.15Y-5.45
X6.15Y-5.55
X6.15Y-5.65
X6.15Y-5.75
X6.15Y-5.85
X6.25Y-2.95
X6.25Y-3.05
X6.25Y-3.15
X6.25Y-3.25
X6.25Y-3.35
X6.25Y-3.45
X6.25Y-3.55
X6.25Y-3.65
X6.25Y-3.75
X6.25Y-3.85
X6.25Y-3.95
X6.25Y-4.05
X6.25Y-4.15
X6.25Y-4.25
X6.25Y-4.35
X6.25Y-4.45
X6.25Y-4.55
X6.25Y-4.65
X6.25Y-4.75
X6.25Y-4.85
X6.25Y-4.95
X6.25Y-5.05
X6.25Y-5.15
X6.25Y-5.25
X6.25Y-5.35
X6.25Y-5.45
X6.25Y-5.55
X6.25Y-5.65
X6.25Y-5.75
X6.25Y-5.85
X6.35Y-2.95
X6.35Y-3.05
X6.35Y-3.15
X6.35Y-3.25
X6.35Y-3.35
X6.35Y-3.45
X6.35Y-3.55
X6.35Y-3.65
X6.35Y-3.75
X6.35Y-3.85
X6.35Y-3.95
X6.35Y-4.05
X6.35Y-4.15
X6.35Y-4.25
X6.35Y-4.35
X6.35Y-4.45
X6.35Y-4.55
X6.35Y-4.65
X6.35Y-4.75
X6.35Y-4.85
X6.35Y-4.95
X6.35Y-5.05
X6.35Y-5.15
X6.35Y-5.25
X6.35Y-5.35
X6.35Y-5.45
X6.35Y-5.55
X6.35Y-5.65
X6.35Y-5.75
X6.35Y-5.85
X6.45Y-2.95
X6.45Y-3.05
X6.45Y-3.15
X6.45Y-3.25
X6.45Y-3.35
X6.45Y-3.45
X6.45Y-3.55
X6.45Y-3.65
X6.45Y-3.75
X6.45Y-3.85
X6.45Y-3.95
X6.45Y-4.05
X6.45Y-4.15
X6.45Y-4.25
X6.45Y-4.35
X6.45Y-4.45
X6.45Y-4.55
X6.45Y-4.65
X6.45Y-4.75
X6.45Y-4.85
X6.45Y-4.95
X6.45Y-5.05
X6.45Y-5.15
X6.45Y-5.25
X6.45Y-5.35
X6.45Y-5.45
X6.45Y-5.55
X6.45Y-5.65
X6.45Y-5.75
X6.45Y-5.85
X6.55Y-2.95
X6.55Y-3.05
X6.55Y-3.15
X6.55Y-3.25
X6.55Y-3.35
X6.55Y-3.45
X6.55Y-3.55
X6.55Y-3.65
X6.55Y-3.75
X6.55Y-3.85
X6.55Y-3.95
X6.55Y-4.05
X6.55Y-4.15
X6.55Y-4.25
X6.55Y-4.35
X6.55Y-4.45
X6.55Y-4.55
X6.55Y-4.65
X6.55Y-4.75
X6.55Y-4.85
X6.55Y-4.95
X6.55Y-5.05
X6.55Y-5.15
X6.55Y-5.25
X6.55Y-5.35
X6.55Y-5.45
X6.55Y-5.55
X6.55Y-5.65
X6.55Y-5.75
X6.55Y-5.85
X6.65Y-2.95
X6.65Y-3.05
X6.65Y-3.15
X6.65Y-3.25
X6.65Y-3.35
X6.65Y-3.45
X6.65Y-3.55
X6.65Y-3.65
X6.65Y-3.75
X6.65Y-3.85
X6.65Y-3.95
X6.65Y-4.05
X6.65Y-4.15
X6.65Y-4.25
X6.65Y-4.35
X6.65Y-4.45
X6.65Y-4.55
X6.65Y-4.65
X6.65Y-4.75
X6.65Y-4.85
X6.65Y-4.95
X6.65Y-5.05
X6.65Y-5.15
X6.65Y-5.25
X6.65Y-5.35
X6.65Y-5.45
X6.65Y-5.55
X6.65Y-5.65
X6.65Y-5.75
X6.65Y-5.85
X6.75Y-2.95
X6.75Y-3.05
X6.75Y-3.15
X6.75Y-3.25
X6.75Y-3.35
X6.75Y-3.45
X6.75Y-3.55
X6.75Y-3.65
X6.75Y-3.75
X6.75Y-3.85
X6.75Y-3.95
X6.75Y-4.05
X6.75Y-4.15
X6.75Y-4.25
X6.75Y-4.35
X6.75Y-4.45
X6.75Y-4.55
X6.75Y-4.65
X6.75Y-4.75
X6.75Y-4.85
X6.75Y-4.95
X6.75Y-5.05
X6.75Y-5.15
X6.75Y-5.25
X6.75Y-5.35
X6.75Y-5.45
X6.75Y-5.55
X6.75Y-5.65
X6.75Y-5.75
X6.75Y-5.85
X6.85Y-2.95
X6.85Y-3.05
X6.85Y-3.15
X6.85Y-3.25
X6.85Y-3.35
X6.85Y-3.45
X6.85Y-3.55
X6.85Y-3.65
X6.85Y-3.75
X6.85Y-3.85
X6.85Y-3.95
X6.85Y-4.05
X6.85Y-4.15
X6.85Y-4.25
X6.85Y-4.35
X6.85Y-4.45
X6.85Y-4.55
X6.85Y-4.65
X6.85Y-4.75
X6.85Y-4.85
X6.85Y-4.95
X6.85Y-5.05
X6.85Y-5.15
X6.85Y-5.25
X6.85Y-5.35
X6.85Y-5.45
X6.85Y-5.55
X6.85Y-5.65
X6.85Y-5.75
X6.85Y-5.85
X6.95Y-2.95
X6.95Y-3.05
X6.95Y-3.15
X6.95Y-3.25
X6.95Y-3.35
X6.95Y-3.45
X6.95Y-3.55
X6.95Y-3.65
X6.95Y-3.75
X6.95Y-3.85
X6.95Y-3.95
X6.95Y-4.05
X6.95Y-4.15
X6.95Y-4.25
X6.95Y-4.35
X6.95Y-4.45
X6.95Y-4.55
X6.95Y-4.65
X6.95Y-4.75
X6.95Y-4.85
X6.95Y-4.95
X6.95Y-5.05
X6.95Y-5.15
X6.95Y-5.25
X6.95Y-5.35
X6.95Y-5.45
X6.95Y-5.55
X6.95Y-5.65
X6.95Y-5.75
X6.95Y-5.85
X7.05Y-2.95
X7.05Y-3.05
X7.05Y-3.15
X7.05Y-3.25
X7.05Y-3.35
X7.05Y-3.45
X7.05Y-3.55
X7.05Y-3.65
X7.05Y-3.75
X7.05Y-3.85
X7.05Y-3.95
X7.05Y-4.05
X7.05Y-4.15
X7.05Y-4.25
X7.05Y-4.35
X7.05Y-4.45
X7.05Y-4.55
X7.05Y-4.65
X7.05Y-4.75
X7.05Y-4.85
X7.05Y-4.95
X7.05Y-5.05
X7.05Y-5.15
X7.05Y-5.25
X7.05Y-5.35
X7.05Y-5.45
X7.05Y-5.55
X7.05Y-5.65
X7.05Y-5.75
X7.05Y-5.85
X7.15Y-2.95
X7.15Y-3.05
X7.15Y-3.15
X7.15Y-3.25
X7.15Y-3.35
X7.15Y-3.45
X7.15Y-3.55
X7.15Y-3.65
X7.15Y-3.75
X7.15Y-3.85
X7.15Y-3.95
X7.15Y-4.05
X7.15Y-4.15
X7.15Y-4.25
X7.15Y-4.35
X7.15Y-4.45
X7.15Y-4.55
X7.15Y-4.65
X7.15Y-4.75
X7.15Y-4.85
X7.15Y-4.95
X7.15Y-5.05
X7.15Y-5.15
X7.15Y-5.25
X7.15Y-5.35
X7.15Y-5.45
X7.15Y-5.55
X7.15Y-5.65
X7.15Y-5.75
X7.15Y-5.85
X7.25Y-2.95
X7.25Y-3.05
X7.25Y-3.15
X7.25Y-3.25
X7.25Y-3.35
X7.25Y-3.45
X7.25Y-3.55
X7.25Y-3.65
X7.25Y-3.75
X7.25Y-3.85
X7.25Y-3.95
X7.25Y-4.05
X7.25Y-4.15
X7.25Y-4.25
X7.25Y-4.35
X7.25Y-4.45
X7.25Y-4.55
X7.25Y-4.65
X7.25Y-4.75
X7.25Y-4.85
X7.25Y-4.95
X7.25Y-5.05
X7.25Y-5.15
X7.25Y-5.25
X7.25Y-5.35
X7.25Y-5.45
X7.25Y-5.55
X7.25Y-5.65
X7.25Y-5.75
X7.25Y-5.85
X7.35Y-2.95
X7.35Y-3.05
X7.35Y-3.15
X7.35Y-3.25
X7.35Y-3.35
X7.35Y-3.45
X7.35Y-3.55
X7.35Y-3.65
X7.35Y-3.75
X7.35Y-3.85
X7.35Y-3.95
X7.35Y-4.05
X7.35Y-4.15
X7.35Y-4.25
X7.35Y-4.35
X7.35Y-4.45
X7.35Y-4.55
X7.35Y-4.65
X7.35Y-4.75
X7.35Y-4.85
X7.35Y-4.95
X7.35Y-5.05
X7.35Y-5.15
X7.35Y-5.25
X7.35Y-5.35
X7.35Y-5.45
X7.35Y-5.55
X7.35Y-5.65
X7.35Y-5.75
X7.35Y-5.85
X7.45Y-2.95
X7.45Y-3.05
X7.45Y-3.15
X7.45Y-3.25
X7.45Y-3.35
X7.45Y-3.45
X7.45Y-3.55
X7.45Y-3.65
X7.45Y-3.75
X7.45Y-3.85
X7.45Y-3.95
X7.45Y-4.05
X7.45Y-4.15
X7.45Y-4.25
X7.45Y-4.35
X7.45Y-4.45
X7.45Y-4.55
X7.45Y-4.65
X7.45Y-4.75
X7.45Y-4.85
X7.45Y-4.95
X7.45Y-5.05
X7.45Y-5.15
X7.45Y-5.25
X7.45Y-5.35
X7.45Y-5.45
X7.45Y-5.55
X7.45Y-5.65
X7.45Y-5.75
X7.45Y-5.85
X7.55Y-2.95
X7.55Y-3.05
X7.55Y-3.15
X7.55Y-3.25
X7.55Y-3.35
X7.55Y-3.45
X7.55Y-3.55
X7.55Y-3.65
X7.55Y-3.75
X7.55Y-3.85
X7.55Y-3.95
X7.55Y-4.05
X7.55Y-4.15
X7.55Y-4.25
X7.55Y-4.35
X7.55Y-4.45
X7.55Y-4.55
X7.55Y-4.65
X7.55Y-4.75
X7.55Y-4.85
X7.55Y-4.95
X7.55Y-5.05
X7.55Y-5.15
X7.55Y-5.25
X7.55Y-5.35
X7.55Y-5.45
X7.55Y-5.55
X7.55Y-5.65
X7.55Y-5.75
X7.55Y-5.85
X7.65Y-3.25
X7.65Y-3.35
X7.65Y-3.45
X7.65Y-3.55
X7.65Y-3.65
X7.65Y-3.75
X7.65Y-3.85
X7.65Y-3.95
X7.65Y-4.05
X7.65Y-4.15
X7.65Y-4.25
X7.65Y-4.35
X7.65Y-4.45
X7.65Y-4.55
X7.65Y-4.65
X7.65Y-4.75
X7.65Y-4.85
X7.65Y-4.95
X7.65Y-5.05
X7.65Y-5.15
X7.65Y-5.25
X7.65Y-5.35
X7.65Y-5.45
X7.65Y-5.55
X7.75Y-3.25
X7.75Y-3.35
X7.75Y-3.45
X7.75Y-3.55
X7.75Y-3.65
X7.75Y-3.75
X7.75Y-3.85
X7.75Y-3.95
X7.75Y-4.05
X7.75Y-4.15
X7.75Y-4.25
X7.75Y-4.35
X7.75Y-4.45
X7.75Y-4.55
X7.75Y-4.65
X7.75Y-4.75
X7.75Y-4.85
X7.75Y-4.95
X7.75Y-5.05
X7.75Y-5.15
X7.75Y-5.25
X7.75Y-5.35
X7.75Y-5.45
X7.75Y-5.55
X7.85Y-3.25
X7.85Y-3.35
X7.85Y-3.45
X7.85Y-3.55
X7.85Y-3.65
X7.85Y-3.75
X7.85Y-3.85
X7.85Y-3.95
X7.85Y-4.05
X7.85Y-4.15
X7.85Y-4.25
X7.85Y-4.35
X7.85Y-4.45
X7.85Y-4.55
X7.85Y-4.65
X7.85Y-4.75
X7.85Y-4.85
X7.85Y-4.95
X7.85Y-5.05
X7.85Y-5.15
X7.85Y-5.25
X7.85Y-5.35
X7.85Y-5.45
X7.85Y-5.55
T3
X4.1Y-5.275
X4.2Y-5.275
X4.3Y-5.275
T4
X3.975Y-3.325
X3.975Y-3.425
X3.975Y-3.525
X3.975Y-3.625
X3.975Y-3.725
X3.975Y-3.825
X3.975Y-3.925
X3.975Y-4.025
X3.975Y-4.125
X3.975Y-4.225
X3.975Y-4.325
X4.075Y-3.225
X4.075Y-3.325
X4.075Y-3.425
X4.075Y-3.525
X4.075Y-3.625
X4.075Y-3.725
X4.075Y-3.825
X4.075Y-3.925
X4.075Y-4.025
X4.075Y-4.125
X4.075Y-4.225
X4.075Y-4.325
X4.175Y-3.325
X4.175Y-3.425
X4.175Y-3.525
X4.175Y-3.625
X4.175Y-3.725
X4.175Y-3.825
X4.175Y-3.925
X4.175Y-4.025
X4.175Y-4.125
X4.175Y-4.225
X4.175Y-4.325
X4.275Y-3.225
X4.275Y-3.325
X4.275Y-3.425
X4.275Y-3.525
X4.275Y-3.625
X4.275Y-3.725
X4.275Y-3.825
X4.275Y-3.925
X4.275Y-4.025
X4.275Y-4.125
X4.275Y-4.225
X4.275Y-4.325
T5
X3.975Y-3.225
X4.175Y-3.225
T6
X4.05Y-3.05
X4.05Y-5.75
X4.2Y-4.6
X7.75Y-3.05
X7.75Y-5.75
T0
M30
